<svg width="32" height="32" viewBox="0 0 32 32" fill="none" xmlns="http://www.w3.org/2000/svg">
<path d="M15.9053 9.6133C12.4993 9.6133 9.75196 12.3606 9.75196 15.7666C9.75196 19.1726 12.4993 21.9199 15.9053 21.9199C19.3113 21.9199 22.0586 19.1726 22.0586 15.7666C22.0586 12.3606 19.3113 9.6133 15.9053 9.6133ZM15.9053 19.767C13.7042 19.767 11.9048 17.973 11.9048 15.7666C11.9048 13.5602 13.6989 11.7662 15.9053 11.7662C18.1117 11.7662 19.9057 13.5602 19.9057 15.7666C19.9057 17.973 18.1063 19.767 15.9053 19.767V19.767ZM23.7455 9.3616C23.7455 10.1596 23.1028 10.7968 22.3103 10.7968C21.5123 10.7968 20.875 10.1542 20.875 9.3616C20.875 8.56901 21.5177 7.92637 22.3103 7.92637C23.1028 7.92637 23.7455 8.56901 23.7455 9.3616ZM27.8209 10.8183C27.7299 8.89569 27.2907 7.19269 25.8823 5.78958C24.4792 4.38648 22.7762 3.94734 20.8536 3.85095C18.8721 3.73849 12.933 3.73849 10.9516 3.85095C9.03434 3.94199 7.33134 4.38113 5.92289 5.78423C4.51443 7.18733 4.08065 8.89033 3.98425 10.8129C3.87179 12.7944 3.87179 18.7335 3.98425 20.7149C4.07529 22.6375 4.51443 24.3405 5.92289 25.7436C7.33134 27.1467 9.02899 27.5859 10.9516 27.6823C12.933 27.7947 18.8721 27.7947 20.8536 27.6823C22.7762 27.5912 24.4792 27.1521 25.8823 25.7436C27.2854 24.3405 27.7245 22.6375 27.8209 20.7149C27.9334 18.7335 27.9334 12.7997 27.8209 10.8183V10.8183ZM25.2611 22.841C24.8433 23.8907 24.0347 24.6993 22.9797 25.1224C21.3998 25.749 17.6511 25.6044 15.9053 25.6044C14.1594 25.6044 10.4053 25.7436 8.83084 25.1224C7.78119 24.7047 6.97253 23.896 6.54946 22.841C5.92289 21.2612 6.06748 17.5124 6.06748 15.7666C6.06748 14.0208 5.92824 10.2667 6.54946 8.69218C6.96718 7.64254 7.77584 6.83388 8.83084 6.41081C10.4107 5.78423 14.1594 5.92882 15.9053 5.92882C17.6511 5.92882 21.4052 5.78958 22.9797 6.41081C24.0293 6.82852 24.838 7.63718 25.2611 8.69218C25.8876 10.272 25.743 14.0208 25.743 15.7666C25.743 17.5124 25.8876 21.2665 25.2611 22.841Z" fill="#212429"/>
</svg>
