<svg width="32" height="32" viewBox="0 0 32 32" fill="none" xmlns="http://www.w3.org/2000/svg">
<path d="M10.1085 26.6664H5.68563V12.4235H10.1085V26.6664ZM7.89468 10.4806C6.48039 10.4806 5.33325 9.30921 5.33325 7.89492C5.33325 7.21559 5.60312 6.56408 6.08348 6.08372C6.56384 5.60336 7.21535 5.3335 7.89468 5.3335C8.57401 5.3335 9.22552 5.60336 9.70588 6.08372C10.1862 6.56408 10.4561 7.21559 10.4561 7.89492C10.4561 9.30921 9.30849 10.4806 7.89468 10.4806ZM26.6618 26.6664H22.2485V19.733C22.2485 18.0806 22.2152 15.9616 19.949 15.9616C17.6494 15.9616 17.2971 17.7568 17.2971 19.614V26.6664H12.879V12.4235H17.1209V14.3664H17.1828C17.7733 13.2473 19.2156 12.0664 21.3675 12.0664C25.8437 12.0664 26.6666 15.014 26.6666 18.8425V26.6664H26.6618Z" fill="#212429"/>
</svg>
