<svg width="40" height="40" viewBox="0 0 40 40" fill="none" xmlns="http://www.w3.org/2000/svg">
<g clip-path="url(#clip0_1570_3184)">
<path fill-rule="evenodd" clip-rule="evenodd" d="M4.73591 7.08162C3.25265 8.81669 2.13562 10.7912 1.31617 12.9526C0.457797 15.1984 0 17.5057 0 19.9681C0 22.7565 0.597425 25.342 1.62518 27.7816C2.64835 30.2052 4.04692 32.2868 5.88727 34.1176C7.67725 35.9006 9.77625 37.3279 12.2026 38.3653C14.6289 39.4186 17.2635 40 19.9989 40C22.78 40 25.3734 39.4437 27.8432 38.3653C30.2054 37.3393 32.3365 35.9348 34.1585 34.1176C35.9622 32.3165 37.3539 30.1915 38.3542 27.7816C39.4049 25.3146 40 22.7565 40 19.9681C40 17.5057 39.5376 15.1984 38.6815 12.9526C37.8438 10.7934 36.7359 8.86001 35.2641 7.08162C33.79 5.342 32.0847 3.90105 30.1528 2.78842C27.1176 1.04423 23.9863 0 20.3582 0C20.182 0 20.0103 0 19.8386 0C16.2564 0 12.9763 1.02143 9.8907 2.78842C7.9382 3.89421 6.21459 5.34884 4.73591 7.08162Z" fill="#241F20"/>
<path fill-rule="evenodd" clip-rule="evenodd" d="M33.3619 7.24586C30.8852 4.24768 27.6783 2.31654 23.7229 1.57098C19.8363 0.843671 16.1579 1.42735 12.674 3.30833C10.884 4.31152 9.37101 5.56095 8.15099 7.03382C6.89662 8.54089 5.93754 10.276 5.31951 12.2208C4.68317 14.2135 4.52066 16.3065 4.73582 18.3471C5.25542 17.0338 6.05199 15.8323 6.99963 14.6832C8.36386 13.0621 10.0577 11.8469 11.9461 10.9554C13.83 10.1118 15.8992 9.64212 18.0463 9.59424C20.2071 9.59424 22.3084 10.0138 24.2586 10.8596C26.3141 11.6873 28.1041 12.9504 29.6308 14.6376C30.2008 15.2053 30.6769 15.8847 31.1438 16.5664C31.826 16.5664 32.5126 16.6143 33.0963 16.7785C34.6277 17.2003 35.834 17.9777 36.7747 19.1451L36.8205 18.3995C36.9876 16.3567 36.7747 14.4278 36.2071 12.5331C35.6211 10.6476 34.6734 8.86465 33.3619 7.24586Z" fill="#FFAA00"/>
<path fill-rule="evenodd" clip-rule="evenodd" d="M4.31004 26.1125C4.5687 27.6857 5.04481 29.1928 5.83679 30.5699C6.57385 31.9333 7.581 33.1804 8.83308 34.284L9.46712 34.8015C11.6325 36.2767 13.9398 37.33 16.4668 37.8498C18.0943 38.1554 19.7378 38.0596 21.3149 37.688C22.9904 37.33 24.5721 36.6506 26.0508 35.6451C24.682 35.3373 23.462 34.6054 22.5166 33.5065L22.1458 33.0847C20.159 33.2944 18.1607 33.2306 16.1578 32.8248C13.6171 32.2411 11.4219 31.1877 9.37099 29.7286C7.41848 28.2534 5.7933 26.3724 4.5687 24.17L4.25968 23.5361C4.21162 24.3774 4.21162 25.2666 4.31004 26.1125Z" fill="#FFAA00"/>
<path fill-rule="evenodd" clip-rule="evenodd" d="M23.0387 12.9024C21.2007 12.1089 19.1978 11.751 17.1492 11.751C15.1463 11.7989 13.2579 12.2207 11.5183 13.062C9.77636 13.8417 8.26563 14.9931 6.99753 16.4683C6.09796 17.5718 5.36548 18.771 4.89624 20.0342C5.25332 21.6051 5.83472 23.0642 6.68623 24.5394C7.89023 26.5823 9.46734 28.3151 11.4198 29.6762C13.3083 31.0373 15.4736 31.9311 17.7809 32.4464C19.1955 32.7086 20.6788 32.8226 22.146 32.7542C21.5761 31.8171 21.2007 30.8276 21.0382 29.6762C20.8413 28.5111 20.894 27.3597 21.1023 26.1103C21.3632 24.5873 21.9332 23.176 22.7274 21.8627C23.5789 20.5494 24.6845 19.3502 25.9847 18.3926C26.8339 17.7792 27.7289 17.3096 28.6239 16.9334L28.15 16.3999C26.6714 14.8974 24.9935 13.6798 23.0387 12.9024Z" fill="#ED3921"/>
<path fill-rule="evenodd" clip-rule="evenodd" d="M37.0998 21.8647L36.6305 21.0713C35.9438 23.4379 34.6734 25.5309 33.0483 27.4256C32.6729 28.9965 32.0388 30.4078 31.2102 31.7211C30.361 33.0161 29.2531 34.1835 27.9873 35.173C28.8823 35.2209 29.7773 35.0772 30.6746 34.7512C31.5169 34.4434 32.2998 33.9737 33.0963 33.3399C34.1561 32.3526 35.1495 31.1853 35.9942 29.986L36.1384 29.7763C36.5138 28.9965 36.8892 28.2054 37.1455 27.4735C37.4088 26.68 37.5713 25.9026 37.6216 25.1753C37.6697 24.3773 37.6697 23.6955 37.5232 23.0161C37.4111 22.5966 37.2485 22.2227 37.0998 21.8647Z" fill="#FF8800"/>
<path fill-rule="evenodd" clip-rule="evenodd" d="M2.46986 12.6404C1.78774 14.5259 1.41463 16.5163 1.3185 18.6732C1.27043 21.4411 1.78774 24.1178 2.84983 26.6326C3.36714 27.8296 4.00576 28.9969 4.78173 30.1005C5.53481 31.1378 6.36342 32.1433 7.30419 33.0165C5.25784 30.7639 4.04697 28.1533 3.68073 25.2213C3.58001 24.2181 3.58001 23.2765 3.63037 22.287C2.94825 20.3877 2.57286 18.509 2.57286 16.5642C2.57286 14.7334 2.89561 12.9504 3.46785 11.115C3.95541 9.85421 4.57343 8.65266 5.25784 7.55371C4.04697 9.1269 3.15884 10.8118 2.46986 12.6404Z" fill="#F66418"/>
<path fill-rule="evenodd" clip-rule="evenodd" d="M38.4045 13.7458C37.9306 12.2227 37.3126 10.7453 36.516 9.38415C35.7355 8.07088 34.7718 6.86933 33.6228 5.77266C32.579 4.66687 31.359 3.72752 29.9924 2.93408C31.1438 3.72524 32.2013 4.66687 33.1489 5.7225C34.6299 7.39145 35.7378 9.17439 36.4199 11.1694C37.102 13.21 37.4133 15.3189 37.2508 17.5077C37.2027 18.1894 37.102 18.8187 36.9922 19.5004C37.2508 19.9199 37.5278 20.4398 37.7407 20.9733C38.258 22.4986 38.3564 24.1174 38.0954 25.7407C38.892 23.4904 39.2972 21.1192 39.2491 18.6728C39.1507 16.9879 38.892 15.3189 38.4045 13.7458Z" fill="#F66418"/>
<path fill-rule="evenodd" clip-rule="evenodd" d="M32.2014 18.7212C32.7233 19.8224 33.0506 21.024 33.1948 22.2232C33.3619 23.4385 33.4077 24.5899 33.3093 25.7413L33.0964 26.8926C34.6735 25.0618 35.7333 23.019 36.3536 20.6501C35.9943 20.2944 35.6189 19.9227 35.1931 19.6149C34.3508 19.029 33.3619 18.7212 32.2014 18.7212Z" fill="#F66418"/>
<path fill-rule="evenodd" clip-rule="evenodd" d="M29.0472 32.5489C29.6812 31.6552 30.2008 30.6704 30.5762 29.6787C28.4589 31.1879 26.1516 32.2411 23.6292 32.7563C23.9862 33.3399 24.4715 33.8118 24.9934 34.1834C25.5176 34.5391 26.1013 34.799 26.7834 35.011C27.6303 34.2815 28.4108 33.438 29.0472 32.5489Z" fill="#ED3921"/>
<path fill-rule="evenodd" clip-rule="evenodd" d="M18.4653 38.1548L20.7314 38.2666C22.6839 38.221 24.5174 37.8471 26.312 37.2635C27.9875 36.6958 29.6287 35.9025 31.0479 34.9131C30.1506 35.3348 29.2052 35.6426 28.2004 35.6905C27.8891 35.7543 27.5137 35.7543 27.1566 35.7543C24.5746 37.4276 21.6722 38.221 18.4653 38.1548Z" fill="#ED3921"/>
<path fill-rule="evenodd" clip-rule="evenodd" d="M30.9974 22.9685C30.6746 21.6074 30.2008 20.3466 29.5187 19.145C28.3124 19.503 27.2549 20.1345 26.2615 20.9758C25.2039 21.8673 24.3089 22.9708 23.6268 24.2203C23.0386 25.4811 22.6838 26.6826 22.5693 27.9435C22.4228 29.1427 22.5693 30.2485 22.8944 31.2996C23.0386 31.6553 23.1553 31.979 23.3682 32.2891C24.6866 32.1455 25.8883 31.7693 27.0946 31.2517C28.3604 30.7661 29.521 30.1026 30.6243 29.259L30.7227 29.1906C30.9356 28.4109 31.0981 27.6197 31.2125 26.8377C31.3064 25.5312 31.2583 24.2795 30.9974 22.9685Z" fill="#FFEC00"/>
</g>
<defs>
<clipPath id="clip0_1570_3184">
<rect width="40" height="40" fill="white"/>
</clipPath>
</defs>
</svg>
