<svg width="32" height="32" viewBox="0 0 32 32" fill="none" xmlns="http://www.w3.org/2000/svg">
<path d="M28.7762 9.60024C28.4695 8.44546 27.5659 7.53599 26.4186 7.22734C24.339 6.6665 16.0001 6.6665 16.0001 6.6665C16.0001 6.6665 7.66122 6.6665 5.58159 7.22734C4.43428 7.53603 3.53066 8.44546 3.22397 9.60024C2.66675 11.6934 2.66675 16.0604 2.66675 16.0604C2.66675 16.0604 2.66675 20.4275 3.22397 22.5206C3.53066 23.6754 4.43428 24.547 5.58159 24.8556C7.66122 25.4165 16.0001 25.4165 16.0001 25.4165C16.0001 25.4165 24.3389 25.4165 26.4186 24.8556C27.5659 24.547 28.4695 23.6754 28.7762 22.5206C29.3334 20.4275 29.3334 16.0604 29.3334 16.0604C29.3334 16.0604 29.3334 11.6934 28.7762 9.60024V9.60024ZM13.2728 20.0254V12.0955L20.2425 16.0605L13.2728 20.0254V20.0254Z" fill="#212429"/>
</svg>
